<svg width="144.56" height="36.05" data-name="Layer 1" version="1.1" viewBox="0 0 144.56 36.05" xmlns="http://www.w3.org/2000/svg">
 <defs>
  <style>.cls-1{fill:#3e3e3c;}.cls-2{fill:#b8bcbf;}.cls-3{fill:#009757;}.cls-4{fill:#ef7d00;}.cls-5{fill:#e6215a;}.cls-6{fill:#004f9f;}.cls-7{fill:#31b7bc;}</style>
 </defs>
 <path class="cls-1" d="m1.42 20.28h2.52l3.72 4.56 3.52-4.56h2.45v10.92h-2.79v-6.67l-3.23 4.08h-0.07l-3.33-4.08v6.67h-2.79z"/>
 <path class="cls-1" d="m22 20a5.58 5.58 0 0 1 6 5.74 5.58 5.58 0 0 1-6 5.73 5.58 5.58 0 0 1-6-5.73 5.58 5.58 0 0 1 6-5.74zm0 8.86a2.92 2.92 0 0 0 3-3.13 3 3 0 1 0-5.95 0 3 3 0 0 0 2.95 3.14z"/>
 <path class="cls-1" d="m30.39 31.2v-10.92h2.79v6.92l5.1-6.92h2.8v10.92h-2.8v-6.92l-5.1 6.92z"/>
 <path class="cls-1" d="m54.72 31.47h-0.14c-3.81 0-5.93-2.48-5.93-5.73a5.6 5.6 0 0 1 5.9-5.74h0.17v-5.8h2.8v5.8h0.19a5.48 5.48 0 0 1 5.88 5.73c0 3.25-1.92 5.73-5.88 5.73h-0.19v4.59h-2.8zm-0.07-2.6h0.07v-6.24h-0.19c-2.06 0-2.89 1.43-2.89 3.11a2.83 2.83 0 0 0 3.01 3.13zm2.87-6.24v6.24h0.09a2.79 2.79 0 0 0 3-3.13 2.83 2.83 0 0 0-2.89-3.11z"/>
 <path class="cls-1" d="m66 31.2v-10.92h2.79v6.92l5.1-6.92h2.81v10.92h-2.79v-6.92l-5.1 6.92z"/>
 <path class="cls-1" d="m87.39 27h-4.78v4.2h-2.8v-10.92h2.8v4.12h4.78v-4.12h2.79v10.92h-2.79z"/>
 <path class="cls-1" d="m93.44 21.05a8.1 8.1 0 0 1 3.86-1c3.23 0 4.37 1.65 4.37 4.54v6.61h-2.43v-1.26a3.87 3.87 0 0 1-3.24 1.41 3.18 3.18 0 0 1-3.41-3.35c0-2.41 1.77-3.55 4-3.55a4.56 4.56 0 0 1 2.48 0.71c0.07-1.82-0.42-2.82-2-2.82a6.35 6.35 0 0 0-2.87 0.75zm5.61 7v-1.17a3.14 3.14 0 0 0-1.92-0.53c-0.92 0-1.75 0.43-1.75 1.36s0.68 1.29 1.55 1.29a2.41 2.41 0 0 0 2.12-1z"/>
 <path class="cls-1" d="m112.11 27h-4.78v4.2h-2.79v-10.92h2.79v4.12h4.78v-4.12h2.8v10.92h-2.8z"/>
 <path class="cls-1" d="m127.61 29.58a5.35 5.35 0 0 1-4.35 1.89c-3.54 0-5.92-2.28-5.92-5.73a5.56 5.56 0 0 1 5.66-5.74 6.11 6.11 0 0 1 4.4 1.48l-1.31 2.21a3.69 3.69 0 0 0-2.72-1.07 3 3 0 0 0-3 3.11 3.07 3.07 0 0 0 3.16 3.13 3.76 3.76 0 0 0 2.82-1.33z"/>
 <path class="cls-1" d="m129.84 20.28h2.8v3h1.36c3.71 0 4.8 1.85 4.8 3.79s-1.31 4.15-5 4.15h-3.94zm2.8 5.22v3.28h1.09c1.5 0 2.11-0.64 2.11-1.63s-0.58-1.65-2.09-1.65zm7.72-5.22h2.79v10.92h-2.79z"/>
 <path class="cls-2" d="m2.83 0h27.12v5.67h-27.12a2.83 2.83 0 0 1-2.83-2.84 2.83 2.83 0 0 1 2.83-2.83z"/>
 <rect class="cls-3" x="31.08" width="40.6" height="5.67"/>
 <rect class="cls-4" x="72.82" width="20.74" height="5.67"/>
 <rect class="cls-5" x="94.69" width="13.17" height="5.67"/>
 <rect class="cls-6" x="109" width="13.08" height="5.67"/>
 <path class="cls-7" d="m123.21 0h18.52a2.83 2.83 0 0 1 2.83 2.83 2.83 2.83 0 0 1-2.83 2.83h-18.52z"/>
</svg>
