<svg width="164" height="33" viewBox="0 0 164 33" fill="none" xmlns="http://www.w3.org/2000/svg">
<path d="M9.10378 18.0259V27.2391H11.6106V3.20459H7.91633C4.0901 3.20459 0.923572 5.74156 0.923572 10.682C0.923572 14.2872 2.3749 16.29 4.35398 17.3582L0 27.2391H2.90265L6.99276 18.0259H9.10378ZM9.10378 15.8895H7.78439C5.54143 15.8895 3.69429 14.6877 3.69429 10.8155C3.69429 6.80976 5.67337 5.47451 7.78439 5.47451H9.10378V15.8895Z" fill="black"/>
<path d="M37.4706 25.1027H36.1512V10.2814H28.3668V11.7502C28.3668 16.2901 28.2349 21.4975 26.6516 25.1027H25.5961V30.5772H27.971V27.2391H35.2277V30.5772H37.6026V25.1027H37.4706ZM48.6854 26.1709L48.1577 24.0345C47.498 24.5686 46.3105 25.2362 44.8592 25.2362C42.7482 25.2362 41.6927 23.2333 41.6927 19.3611H48.6854V17.8924C48.6854 12.1508 46.8383 10.0144 44.0676 10.0144C40.5052 10.0144 39.0539 14.0201 39.0539 19.4947C39.0539 24.7021 41.1649 27.5061 44.5953 27.5061C46.3105 27.5061 47.6299 26.972 48.6854 26.1709ZM21.506 10.2814V17.4918H17.6798V10.2814H15.041V27.2391H17.6798V19.6282H21.506V27.2391H24.0129V10.2814H21.506ZM58.317 27.2391H61.0877L56.3379 18.2929L60.5599 10.2814H57.9211L53.831 18.1594V10.2814H51.1923V27.2391H53.831V18.827L58.317 27.2391ZM67.2888 27.5061C68.8721 27.5061 69.9276 26.972 70.7192 26.1709L70.0595 24.168C69.3998 24.7021 68.4762 25.2362 67.2888 25.2362C65.1778 25.2362 64.2542 22.8328 64.2542 18.56C64.2542 14.2872 65.5736 12.1508 67.4207 12.1508C68.4762 12.1508 69.5318 12.6849 70.1915 13.3525L70.5873 10.8155C69.7956 10.2814 69.004 9.88086 67.5527 9.88086C63.5945 9.88086 61.6154 13.219 61.6154 18.56C61.4835 24.5686 63.7264 27.5061 67.2888 27.5061ZM33.5125 25.1027H29.0265C30.4779 21.4975 30.6098 16.2901 30.6098 12.6849V12.4178H33.5125V25.1027ZM44.0676 12.1508C45.5189 12.1508 46.0466 14.2872 46.0466 17.2247H41.6927C41.8246 14.1537 42.4843 12.1508 44.0676 12.1508Z" fill="black"/>
<path d="M127.849 25.9038H120.46C121.384 24.8356 121.911 22.4322 122.175 18.827C122.439 15.3554 122.571 10.682 122.703 4.53984H127.849V25.9038ZM129.828 31.2448H131.147V25.9038H129.564V3.20459H121.252C121.12 9.88083 120.988 15.2218 120.724 18.827C120.328 22.2986 119.8 24.9691 118.613 25.9038H117.953V31.2448H119.273L119.536 27.2391H129.696L129.828 31.2448Z" fill="black"/>
<path d="M136.425 27.6397C138.932 27.6397 141.175 25.7703 141.175 22.5657C141.175 20.6964 140.251 19.0941 138.14 18.2929C139.987 17.3583 140.647 15.8895 140.647 14.1537C140.647 11.6167 139.196 10.0144 136.557 10.0144C134.71 10.0144 133.522 10.8156 132.731 11.7502L133.126 13.219C133.918 12.1508 134.974 11.3497 136.425 11.3497C138.008 11.3497 138.932 12.4179 138.932 14.1537C138.932 16.4236 137.612 17.6253 135.633 17.6253H134.578V18.9606H136.029C138.536 18.9606 139.592 20.4293 139.592 22.5657C139.592 24.9692 138.14 26.3044 136.425 26.3044C134.182 26.3044 132.995 24.4351 132.995 24.4351L132.467 25.7703C132.467 25.6368 133.654 27.6397 136.425 27.6397Z" fill="black"/>
<path d="M144.605 19.0941H152.257C152.785 13.0855 150.938 10.0144 148.035 10.0144C145.264 10.0144 143.153 13.219 143.153 18.827C143.153 24.4351 144.737 27.6397 148.299 27.6397C150.938 27.6397 152.257 25.7703 152.257 25.7703L151.729 24.4351C151.729 24.4351 150.542 26.3044 148.299 26.3044C145.792 26.1709 144.605 23.6339 144.605 19.0941ZM147.903 11.2161C149.618 11.2161 150.938 13.219 150.674 17.7588H144.605C144.737 13.4861 146.188 11.2161 147.903 11.2161Z" fill="black"/>
<path d="M162.417 27.2389H164V10.2812H162.417V17.7586H156.743V10.2812H155.16V27.2389H156.743V19.0939H162.417V27.2389Z" fill="black"/>
<path fill-rule="evenodd" clip-rule="evenodd" d="M97.8985 19.0941C95.3917 21.631 95.2597 24.9692 94.9958 32.046C101.461 32.046 106.079 32.046 108.322 29.776C110.565 27.3726 110.565 22.6992 110.565 16.29C103.704 16.4236 100.537 16.5571 97.8985 19.0941ZM79.0313 16.1565C79.0313 22.5657 79.0312 27.3726 81.2742 29.6425C83.6491 32.046 88.135 32.046 94.732 32.046C94.4681 24.9692 94.3362 21.7646 91.8293 19.0941C89.3225 16.5571 86.024 16.4236 79.0313 16.1565ZM94.732 0C88.267 0 83.6491 0 81.4061 2.26992C79.1632 4.67337 79.1632 9.34674 79.1632 15.7559C86.1559 15.4889 89.3225 15.3554 91.9613 12.8184C94.3362 10.2814 94.4681 7.07682 94.732 0ZM97.8985 12.9519C95.3917 10.4149 95.2597 7.07682 94.9958 0C101.461 0 106.079 0 108.322 2.26992C110.565 4.67337 110.565 9.34674 110.565 15.7559C103.704 15.6224 100.537 15.4889 97.8985 12.9519Z" fill="black"/>
<path fill-rule="evenodd" clip-rule="evenodd" d="M110.697 16.1565V16.023V15.8895C103.704 15.6224 100.537 15.4889 97.8985 12.9519C95.3917 10.4149 95.2597 7.07682 94.9959 0H94.8639H94.732C94.4681 7.07682 94.3362 10.2814 91.8293 12.9519C89.3225 15.4889 86.024 15.6224 79.0312 15.8895V16.023V16.1565C86.024 16.4236 89.1905 16.5571 91.8293 19.0941C94.3362 21.631 94.4681 24.9692 94.732 32.046H94.8639H94.9959C95.2597 24.9692 95.3917 21.7646 97.8985 19.0941C100.537 16.5571 103.704 16.4236 110.697 16.1565Z" fill="white"/>
</svg>
